<svg width="48" height="48" viewBox="0 0 48 48" fill="none" xmlns="http://www.w3.org/2000/svg">
<path opacity="0.4" d="M44 24.0002C44 35.0458 35.0456 44.0002 24 44.0002C12.9543 44.0002 4 35.0458 4 24.0002C4 12.9545 12.9543 4.00024 24 4.00024C35.0456 4.00024 44 12.9545 44 24.0002Z" fill="#F9A474"/>
<path d="M44 24.0002C44 35.0458 35.0456 44.0002 24 44.0002C12.9543 44.0002 4 35.0458 4 24.0002C4 12.9545 12.9543 4.00024 24 4.00024C35.0456 4.00024 44 12.9545 44 24.0002Z" stroke="#F9A474" stroke-width="3"/>
<path d="M4 24.0002C8.56062 28.858 15.8217 32.0002 24 32.0002C32.1784 32.0002 39.4394 28.858 44 24.0002" stroke="#F9A474" stroke-width="3"/>
<path d="M24 4.00024V44.0002" stroke="#F9A474" stroke-width="3" stroke-linecap="round" stroke-linejoin="round"/>
<path d="M10.3112 10.0002C9.54776 13.0002 10.0801 18.0002 13.1324 22.0002C16.3416 26.2058 18.3649 32.0002 10.7386 38.0002" stroke="#F9A474" stroke-width="3" stroke-linecap="round" stroke-linejoin="round"/>
<path d="M37.6888 10.0002C38.4522 13.0002 37.9198 18.0002 34.8676 22.0002C31.6584 26.2058 29.6352 32.0002 37.2614 38.0002" stroke="#F9A474" stroke-width="3" stroke-linecap="round" stroke-linejoin="round"/>
</svg>
