<svg width="48" height="48" viewBox="0 0 48 48" fill="none" xmlns="http://www.w3.org/2000/svg">
<path opacity="0.4" d="M40.2844 21.5914C43.215 19.5278 43.8788 15.5438 41.7686 12.6835C36.99 6.2058 28.0002 1.83438 20.984 7.8847C18.3267 10.1761 16.2119 12.9876 14.7982 16.2004L12.002 22.555V23.0002C12.002 28.541 18.8547 34.9954 24.8112 36.9394C24.9388 36.981 25.0686 37.01 25.2014 37.0294C25.9714 36.4622 26.8166 36.0078 27.8108 35.7658L37.7048 33.3566C42.7882 32.1188 44.0496 25.6488 39.7856 22.6822L39.133 22.241C39.6666 21.9728 40.0158 21.7806 40.2844 21.5914Z" fill="#F682A5"/>
<path d="M11.9652 22.4926C11.7911 27.9376 18.2073 34.6488 24.2232 36.7586M11.9652 22.4926C11.356 23.538 5.13444 28.5256 5.02566 30.6382C4.49852 34.8338 11.6266 42.7158 17.1227 42.985C19.1751 43.2762 22.022 39.8224 24.9078 37.2564C26.4972 35.843 28.7878 35.516 37.9566 33.2408C41.2838 32.6624 45.281 26.9232 39.3554 22.0584M11.9652 22.4926C13.8216 18.0902 17.031 9.57964 23.325 6.2188C25.881 4.76654 32.5198 3.4294 39.025 9.61378C41.263 11.496 45.1424 15.6189 41.5316 20.3692C39.1242 23.1748 35.4842 22.3626 35.1306 27.2148" stroke="#F682A5" stroke-width="3" stroke-linecap="round" stroke-linejoin="round"/>
</svg>
