<svg width="24" height="24" viewBox="0 0 24 24" fill="none" xmlns="http://www.w3.org/2000/svg">
<g opacity="0.7">
<path fill-rule="evenodd" clip-rule="evenodd" d="M16.8775 8.02038C17.1425 8.50493 16.9645 9.11257 16.48 9.37756C15.1086 10.1275 13.8208 11.6975 12.8374 13.2032C12.3581 13.9372 11.9735 14.6207 11.709 15.1204C11.577 15.3697 11.4756 15.5721 11.4079 15.7105C11.374 15.7797 11.3487 15.8328 11.3322 15.8678L11.3141 15.9063L11.3102 15.9149L11.3096 15.9159C11.1551 16.2536 10.8261 16.4782 10.4553 16.4987C10.0844 16.5191 9.73266 16.3323 9.54197 16.0135C9.23126 15.494 8.73753 15.0198 8.27997 14.6581C8.05765 14.4823 7.85753 14.3437 7.71472 14.2502C7.64359 14.2036 7.58744 14.1687 7.55079 14.1464C7.53248 14.1352 7.5191 14.1273 7.51123 14.1226L7.50443 14.1187C7.02494 13.845 6.85797 13.2344 7.13151 12.7548C7.40512 12.275 8.01583 12.1079 8.49558 12.3815L8.00017 13.2502C8.49558 12.3815 8.49539 12.3814 8.49558 12.3815L8.49729 12.3825L8.49959 12.3838L8.50594 12.3875L8.52544 12.3989C8.5414 12.4083 8.56318 12.4212 8.59018 12.4377C8.64416 12.4705 8.71925 12.5173 8.81063 12.5772C8.99281 12.6965 9.2427 12.8696 9.52037 13.0892C9.73257 13.257 9.96985 13.4587 10.2094 13.6911C10.4662 13.2297 10.7872 12.685 11.1629 12.1096C12.1796 10.5529 13.6917 8.62286 15.5204 7.62282C16.0049 7.35782 16.6125 7.53582 16.8775 8.02038Z" fill="#8F8881"/>
</g>
</svg>
