<svg width="48" height="48" viewBox="0 0 48 48" fill="none" xmlns="http://www.w3.org/2000/svg">
<path d="M44.002 24.0002C44.002 35.0458 35.0476 44.0002 24.002 44.0002C12.9563 44.0002 4.00195 35.0458 4.00195 24.0002C4.00195 12.9545 12.9563 4.00024 24.002 4.00024C35.0476 4.00024 44.002 12.9545 44.002 24.0002Z" stroke="#C3B2E7" stroke-width="3"/>
<path opacity="0.4" fill-rule="evenodd" clip-rule="evenodd" d="M44.003 24C44.003 29.2758 41.9602 34.0744 38.6226 37.6482L31.2346 36.311L28.7314 43.4378C27.2154 43.8052 25.632 44 24.003 44C21.168 44 18.4707 43.4102 16.0273 42.3464L16.1057 34.333L8.0095 34.42H6.9284C5.32698 31.8014 4.311 28.786 4.0625 25.5556L10.396 20.8776L7.11386 13.4409L7.07552 13.3432C9.56584 9.39586 13.3987 6.3803 17.933 4.93774L18.0029 5.00004L24.036 9.24486L30.003 5.00004L30.08 4.94C34.1532 6.23758 37.66 8.80474 40.1354 12.1764L40.0626 12.3918L37.6098 18.7796L43.9968 23.4968L43.9982 23.5622C44.0014 23.7078 44.003 23.8538 44.003 24ZM24.5876 18.6981C24.239 18.4343 23.767 18.4343 23.4184 18.6981L18.9129 22.1082C18.5644 22.372 18.4185 22.8396 18.5517 23.2666L20.2726 28.7844C20.4058 29.2112 20.7876 29.5002 21.2184 29.5002H26.7876C27.2184 29.5002 27.6002 29.2112 27.7334 28.7844L29.4542 23.2666C29.5874 22.8396 29.4416 22.372 29.093 22.1082L24.5876 18.6981Z" fill="#C3B2E7"/>
<path d="M23.4174 18.6981C23.766 18.4343 24.238 18.4343 24.5866 18.6981L29.092 22.1082C29.4406 22.372 29.5864 22.8396 29.4532 23.2666L27.7324 28.7844C27.5992 29.2112 27.2174 29.5002 26.7866 29.5002H21.2174C20.7866 29.5002 20.4048 29.2112 20.2716 28.7844L18.5507 23.2666C18.4176 22.8396 18.5634 22.372 18.9119 22.1082L23.4174 18.6981Z" stroke="#C3B2E7" stroke-width="3"/>
<path d="M24.002 18.0002V10.0002M30.002 22.0002L38.002 19.0002M28.002 30.0002L32.002 36.0002M20.002 29.0002L16.002 34.0002M18.002 23.0002L10.002 21.0002" stroke="#C3B2E7" stroke-width="3" stroke-linecap="round" stroke-linejoin="round"/>
<path d="M18.002 5.00024L24.035 9.24506L30.002 5.00024M4.00195 25.5998L10.3951 20.8778L7.11291 13.4411M38.9426 37.7064L31.2336 36.3112L28.533 44.0002M40.0616 12.392L37.609 18.7798L44.002 23.5016M16.0218 42.812L16.1048 34.3332L8.00857 34.4202" stroke="#C3B2E7" stroke-width="3" stroke-linejoin="round"/>
</svg>
