<svg width="48" height="48" viewBox="0 0 48 48" fill="none" xmlns="http://www.w3.org/2000/svg">
<path opacity="0.4" d="M35 23.0002C35 16.9251 30.0752 12.0002 24 12.0002C18.2465 12.0002 13.5247 16.4175 13.0408 22.0456C7.96796 22.5284 4 26.8008 4 32.0002C4 37.523 8.47716 42.0002 14 42.0002H35C39.9706 42.0002 44 37.9708 44 33.0002C44 28.0296 39.9706 24.0002 35 24.0002L34.9552 24.0004C34.9848 23.671 35 23.3374 35 23.0002Z" fill="#B8CEDC"/>
<path d="M34.9552 24.0004C34.97 24.0002 34.985 24.0002 35 24.0002C39.9706 24.0002 44 28.0296 44 33.0002C44 37.9708 39.9706 42.0002 35 42.0002H14C8.47716 42.0002 4 37.523 4 32.0002C4 26.8008 7.96796 22.5284 13.0408 22.0456M34.9552 24.0004C34.9848 23.671 35 23.3374 35 23.0002C35 16.9251 30.0752 12.0002 24 12.0002C18.2465 12.0002 13.5247 16.4175 13.0408 22.0456M34.9552 24.0004C34.7506 26.2692 33.8572 28.3394 32.4856 30.0002M13.0408 22.0456C13.3565 22.0156 13.6765 22.0002 14 22.0002C16.2516 22.0002 18.3295 22.7444 20.001 24.0002" stroke="#B8CEDC" stroke-width="3" stroke-linecap="round" stroke-linejoin="round"/>
<path d="M5.91878 20.3876C4.4373 14.9438 7.71844 9.34818 13.2474 7.8895M5.91878 20.3876L4 20.8938M5.91878 20.3876C6.28718 21.7414 6.9154 22.9582 7.73646 24.0002M13.2474 7.8895L12.7333 6.00024M13.2474 7.8895C17.3335 6.8115 21.5036 8.29462 24 11.3395M6.953 12.6462L4.9288 11.4928M22.2814 6.91474L21.114 8.91012" stroke="#B8CEDC" stroke-width="3" stroke-linecap="round"/>
</svg>
