<svg width="48" height="48" viewBox="0 0 48 48" fill="none" xmlns="http://www.w3.org/2000/svg">
<path opacity="0.4" d="M34 24.0002C34 29.523 29.5228 34.0002 24 34.0002C18.4772 34.0002 14 29.523 14 24.0002C14 18.4774 18.4772 14.0002 24 14.0002C29.5228 14.0002 34 18.4774 34 24.0002Z" fill="#FEDF6F"/>
<path d="M34 24.0002C34 29.523 29.5228 34.0002 24 34.0002C18.4772 34.0002 14 29.523 14 24.0002C14 18.4774 18.4772 14.0002 24 14.0002C29.5228 14.0002 34 18.4774 34 24.0002Z" stroke="#FEDF6F" stroke-width="3"/>
<path d="M24 4.00024C23.2454 4.6669 22.189 6.40024 24 8.00024M24 40.0002C24.7546 40.6668 25.811 42.4002 24 44.0002M39 9.00566C37.937 8.93988 35.8506 9.4461 36.0084 11.9972M10.9915 35.0002C11.0573 36.0632 10.5511 38.1496 8 37.9918M10.0054 9.00024C9.93958 10.0643 10.4463 12.1528 13 11.9948M36 35.0054C37.063 34.9432 39.1494 35.4218 38.9916 37.8338M44 24.0002C43.3334 23.2456 41.6 22.1892 40 24.0002M8 23.0002C7.33334 23.7548 5.6 24.8112 4 23.0002" stroke="#FEDF6F" stroke-width="3" stroke-linecap="round"/>
</svg>
