<svg width="48" height="48" viewBox="0 0 48 48" fill="none" xmlns="http://www.w3.org/2000/svg">
<path opacity="0.4" d="M21.4368 13.7219L30 31.9984C25.6666 31.9984 24.3478 29.7126 19.8261 27.4268C16.2087 25.5984 11.1594 25.903 9.65218 26.284L15.7148 21.9978C16.3317 21.5616 16.6402 21.3436 16.7387 21.0116C16.8373 20.6796 16.6979 20.3286 16.4189 19.6265L15.5704 17.4902C15.2531 16.6914 15.0944 16.292 14.8077 16.0023C14.7078 15.9013 14.5974 15.8113 14.4784 15.7338C14.137 15.5112 13.7138 15.4361 12.8675 15.2859L6.3663 14.1325C4.9974 13.8896 4 12.6997 4 11.3094C4 9.56278 5.54836 8.22198 7.27702 8.47164L16.0686 9.74138C17.6521 9.97008 18.4438 10.0844 19.1042 10.4619C19.3795 10.6192 19.6351 10.8088 19.8656 11.0265C20.4186 11.5487 20.758 12.2731 21.4368 13.7219Z" fill="#B8CEDC"/>
<path d="M21.4368 13.7219L30 31.9984C25.6666 31.9984 24.3478 29.7126 19.8261 27.4268C16.2087 25.5984 11.1594 25.903 9.65218 26.284L15.7148 21.9978C16.3317 21.5616 16.6402 21.3436 16.7387 21.0116C16.8373 20.6796 16.6979 20.3286 16.4189 19.6265L15.5704 17.4902C15.2531 16.6914 15.0944 16.292 14.8077 16.0023C14.7078 15.9013 14.5974 15.8113 14.4784 15.7338C14.137 15.5112 13.7138 15.4361 12.8675 15.2859L6.3663 14.1325C4.9974 13.8896 4 12.6997 4 11.3094C4 9.56278 5.54836 8.22198 7.27702 8.47164L16.0686 9.74138C17.6521 9.97008 18.4438 10.0844 19.1042 10.4619C19.3795 10.6192 19.6351 10.8088 19.8656 11.0265C20.4186 11.5487 20.758 12.2731 21.4368 13.7219Z" stroke="#B8CEDC" stroke-width="3" stroke-linecap="round" stroke-linejoin="round"/>
<path d="M38 26.0042C41.3137 26.0042 44 23.3179 44 20.0042C44 16.6904 41.3137 14.0042 38 14.0042C34.6863 14.0042 32 16.6904 32 20.0042C32 23.3179 34.6863 26.0042 38 26.0042Z" stroke="#B8CEDC" stroke-width="3" stroke-linecap="round" stroke-linejoin="round"/>
<path d="M4 36.1688C6.11112 29.1056 15.537 32.3474 23 36.1688C30.463 39.9902 38 42.4218 42 36.1688" stroke="#B8CEDC" stroke-width="3" stroke-linecap="round" stroke-linejoin="round"/>
</svg>
