<svg width="48" height="48" viewBox="0 0 48 48" fill="none" xmlns="http://www.w3.org/2000/svg">
<path d="M44.002 24.0002C44.002 35.0458 35.0476 44.0002 24.002 44.0002C12.9563 44.0002 4.00195 35.0458 4.00195 24.0002C4.00195 12.9545 12.9563 4.00024 24.002 4.00024C35.0476 4.00024 44.002 12.9545 44.002 24.0002Z" stroke="#FEDF6F" stroke-width="3"/>
<path opacity="0.4" d="M18.002 16.002C22.176 12.2293 32.6542 10.2584 41.002 14.0306L41.4498 14.2184C43.075 17.1107 44.002 20.4481 44.002 24.0021C44.002 24.2327 43.998 24.4622 43.9904 24.691C43.9942 24.6945 43.9982 24.698 44.002 24.7015L43.9878 24.7605C43.9888 24.7373 43.9896 24.7141 43.9904 24.691C41.7148 22.6348 38.2502 21.4743 33.6738 21.4715L33.779 22.0021C34.9574 27.7913 31.4308 38.3787 24.002 44.0021C19.8217 44.0021 15.9409 42.7195 12.7317 40.5265L14.002 40.0021C15.8911 39.1457 18.5429 37.2173 20.565 34.3155L20.002 34.0021C14.7511 31.4813 8.31869 21.9209 8.00195 12.002L8.19139 11.7519C10.3153 9.01471 13.1343 6.84383 16.3835 5.50415L16.2429 6.00197C15.6655 8.09855 15.5367 12.1635 17.6478 16.351L18.002 16.002Z" fill="#FEDF6F"/>
<path d="M16.2429 6.00024C15.3511 9.23834 15.5295 17.1717 23.377 23.0002M23.377 23.0002C33.261 20.3402 40.252 21.3002 44.002 24.6998M23.377 23.0002C24.507 32.3764 17.752 38.3002 14.002 40.0002" stroke="#FEDF6F" stroke-width="3" stroke-linecap="round" stroke-linejoin="round"/>
<path d="M18.002 16.0004C22.176 12.2277 32.6542 10.2568 41.002 14.029" stroke="#FEDF6F" stroke-width="3" stroke-linejoin="round"/>
<path d="M33.779 22.0002C34.9574 27.7896 31.4308 38.3768 24.002 44.0002" stroke="#FEDF6F" stroke-width="3" stroke-linejoin="round"/>
<path d="M20.002 34.0002C14.7511 31.4794 8.31869 21.9192 8.00195 12.0002" stroke="#FEDF6F" stroke-width="3" stroke-linejoin="round"/>
</svg>
