<svg width="48" height="48" viewBox="0 0 48 48" fill="none" xmlns="http://www.w3.org/2000/svg">
<path d="M20 8.00024C20 10.2094 21.7908 12.0002 24 12.0002C26.2092 12.0002 28 10.2094 28 8.00024C28 5.7911 26.2092 4.00024 24 4.00024C21.7908 4.00024 20 5.7911 20 8.00024Z" stroke="#C7D78D" stroke-width="3"/>
<path opacity="0.4" d="M15.772 20.0002C17.1435 22.7938 18.6088 25.41 18.2704 28.6286C17.7294 33.774 11.4902 35.7106 7.50044 38.081C4.8865 39.634 5.8638 44.0002 9.07164 44.0002C12.9609 44.0002 16.4321 43.6898 19.9412 42.0404L23.8114 39.6588L27.7634 42.0404C31.3468 43.6898 34.8916 44.0002 38.8632 44.0002C42.139 44.0002 43.137 39.634 40.4678 38.081C36.3934 35.7106 30.0222 33.774 29.4696 28.6286C29.124 25.41 30.6204 22.7938 32.021 20.0002L32.3592 19.3908C30.1984 17.2923 27.25 16.0002 24 16.0002C20.7002 16.0002 17.7115 17.3321 15.5421 19.4876L15.772 20.0002Z" fill="#C7D78D"/>
<path d="M32.021 20.0002C30.6204 22.7938 29.124 25.41 29.4696 28.6286C30.0222 33.774 36.3934 35.7106 40.4678 38.081C43.137 39.634 42.139 44.0002 38.8632 44.0002C34.8916 44.0002 31.3468 43.6898 27.7634 42.0404L20.7366 37.8058C19.9164 37.4282 18.9155 37.5036 18 37.8058" stroke="#C7D78D" stroke-width="3" stroke-linecap="round" stroke-linejoin="round"/>
<path d="M15.772 20.0002C17.1435 22.7938 18.6088 25.41 18.2704 28.6286C17.7294 33.774 11.4902 35.7106 7.50044 38.081C4.8865 39.634 5.8638 44.0002 9.07164 44.0002C12.9609 44.0002 16.4321 43.6898 19.9412 42.0404L26.8222 37.8058C27.7774 37.3568 28.9826 37.5482 30 38.0002" stroke="#C7D78D" stroke-width="3" stroke-linecap="round" stroke-linejoin="round"/>
<path d="M6 32.0002C10.8917 32.0002 13.0874 26.59 13.7867 22.8584C13.9693 21.8844 14.2649 20.9132 14.9125 20.163C17.113 17.6137 20.368 16.0002 24 16.0002C27.632 16.0002 30.887 17.6137 33.0874 20.163C33.735 20.9132 34.0308 21.8844 34.2134 22.8584C34.9126 26.59 37.1082 32.0002 42 32.0002" stroke="#C7D78D" stroke-width="3" stroke-linecap="round" stroke-linejoin="round"/>
</svg>
